<svg t="1603519043424" class="icon" viewBox="0 0 1024 1024" version="1.1" xmlns="http://www.w3.org/2000/svg" p-id="3967" width="128" height="128"><path d="M591.52 99H425.93c-9.72 0-18.66 5.32-23.29 13.87l-17.7 32.64-69.75 25.99a102.759 102.759 0 0 0-45.93 34.07 102.676 102.676 0 0 0-20.64 53.33l-0.93 10.59-96.74 514.96c-2.27 12.08 0.34 24.29 7.33 34.39 3.08 4.45 6.84 8.24 11.13 11.27v50.8c0 14.63 11.86 26.5 26.5 26.5h126.27c14.63 0 26.5-11.86 26.5-26.5v-13.46c31.5 8.76 72.42 13.18 122.3 13.18 74.46 0 140.2-5.32 195.68-15.82 1.17 0.76 2.37 1.47 3.61 2.13v31.58c0 14.63 11.86 26.5 26.5 26.5h126.27c14.63 0 26.5-11.86 26.5-26.5v-52.08a45.493 45.493 0 0 0 24.05-45.27l-56.76-524.24-0.11-1.43a83.988 83.988 0 0 0-49.01-70.23l-141.78-64.45-9.71-24.93A26.5 26.5 0 0 0 591.52 99z" fill="#3B394D" p-id="3968"></path><path d="M273.97 273.1l-96.98 516.23c-1.96 10.46 5 20.51 15.48 22.34l3.43 0.6v68.62h126.27v-52.57c5.72-3.26 9.68-7.77 9.68-14.99V273.1h-57.88z" fill="#46AFE4" p-id="3969"></path><path d="M725.84 320.2c-33.74 36.95-53.4 85.78-53.4 137.66v292.03c-46.13 9.32-111.5 17.05-201.46 17.05-2.95 0-5.85-0.01-8.69-0.04-0.01-3.85 0-71.32 0-71.32l-21.86 48.94s0 17.37-0.21 21.91c-110.45-3.81-131.75-28.25-135.21-41.15-0.07-4.78-0.13-7.95-0.13-7.95l-60.23-111 26.26-298.54 127.45-39.21c12.67 8.38 27.84 13.25 44.16 13.25h64.17c28.43 0 54.81-9.63 75.85-25.95h0.01l62.59 30.16 80.7 34.16z" fill="#FDA2B8" p-id="3970"></path><path d="M440.43 744.52v21.91l-9.6-0.39zM725.83 320.2c-33.73 36.96-53.39 85.78-53.39 137.66v290.98c-46.13 9.89-111.5 18.1-201.46 18.1-2.95 0-5.85-0.02-8.69-0.05v-71.31l182.85-409.54s54.12 23.48 80.69 34.16z" fill="#DE3C5B" p-id="3971"></path><path d="M674.96 836.11c-28.41 6.02-64.32 11.44-109.02 14.73v-87.31c43.39-3.3 78.49-8.69 106.5-14.69v77.78c0 3.48 0.92 6.71 2.52 9.49z" fill="#46AFE4" p-id="3972"></path><path d="M672.44 748.84c-28.01 6-63.11 11.39-106.5 14.69V639.86c0-69.45 44.48-128.52 106.5-150.27 0.06 2.06 0.08 255.89 0 259.25z" fill="#FDA2B8" p-id="3973"></path><path d="M365.15 639.86v118.89c-46.35-9.31-57.76-24.39-60.17-33.55-0.05-4.55-0.1-7.67-0.1-7.86v-0.01l-60.23-111.01 10.38-117.94c63.9 20.68 110.12 80.69 110.12 151.48z" fill="#FFFFFF" p-id="3974"></path><path d="M425.93 125.5l13.83 130.35-168.85 51.94 4.1-46.57c2.59-29.35 21.82-54.6 49.43-64.89l79.06-29.45 22.43-41.38zM685 196.77l-39.86 89.26-62.59-30.15-70.93-0.12 79.9-130.26 13.62 34.97z" fill="#B8E5FA" p-id="3975"></path><path d="M462.28 281.83v413.39l-21.85 48.94V281.83z" fill="#DE3C5B" p-id="3976"></path><path d="M788.39 273.75a203.673 203.673 0 0 0-62.56 46.46l-80.69-34.18L685 196.77l71.73 32.61c17.78 8.08 30.15 24.59 33.06 43.7-0.25 0.12-0.96 0.45-1.4 0.67z" fill="#46AFE4" p-id="3977"></path><path d="M629.78 171.68c-6.98 62.71-59.99 110.15-123.1 110.15h-11.06l95.89-156.34 13.62 34.98 24.65 11.21zM425.93 125.5l16.59 156.34c-44.32 0-80.25-35.93-80.25-80.25v-19.35l41.22-15.36 22.44-41.38z" fill="#FFFFFF" p-id="3978"></path><path d="M365.15 758.75v85.46c-60.17-12.84-60.17-37.07-59.9-40.83 0.02-0.35 0.05-13.51-0.03-29.45-0.01-2.8-0.03-5.69-0.04-8.6 0.04-0.09 0.05-0.15 0.06-0.18 0.19-0.66-0.1-26.55-0.26-39.96 2.4 9.17 13.81 24.25 60.17 33.56z" fill="#B8E5FA" p-id="3979"></path></svg>