<svg t="1603519009062" class="icon" viewBox="0 0 1024 1024" version="1.1" xmlns="http://www.w3.org/2000/svg" p-id="3812" width="128" height="128"><path d="M635.97 64.47H370.39c-5.59 0-11.07 1.56-15.83 4.51l-84.75 52.63a59.984 59.984 0 0 0-24.22 29.17L95.24 428.5a29.964 29.964 0 0 0-1.92 24.22c2.8 7.98 8.85 14.41 16.65 17.7l98.99 41.74-32.9 346.2c-0.63 6.59 0.94 13.2 4.47 18.8 2.61 4.15 17.87 25.84 62.54 45.63 24.56 10.88 54.04 19.49 87.63 25.58 40.83 7.4 88.17 11.16 140.73 11.16 52.18 0 104.44-3.69 155.35-10.98 40.78-5.84 80.81-13.98 118.96-24.21 65.62-17.59 103.19-35.31 104.75-36.05a29.991 29.991 0 0 0 17.04-29.1l-24.15-359.51 66.74-17.83c8.27-2.21 15.2-7.85 19.05-15.5a29.997 29.997 0 0 0 1.1-24.53L817.7 157.59c-0.01-0.03-0.02-0.05-0.03-0.08a63.877 63.877 0 0 0-36.43-37.01L647.15 66.63a29.933 29.933 0 0 0-11.18-2.16z" fill="#3B394D" p-id="3813"></path><path d="M273.02 163.12l-32.11 329.96-119.29-50.3z" fill="#46AFE4" p-id="3814"></path><path d="M635.97 94.47l29.77 11.96L485.69 509.7c-4.04 0.06-8.12 0.09-12.23 0.09-106.08 0-163.23-22.68-229.6-47.81l27.78-292.3c0.88-9.3 6.06-17.66 14-22.59l84.75-52.62c0 54.88 29.89 110.57 103.23 110.57 73.33 0 162.35-55.69 162.35-110.57z" fill="#FFFFFF" p-id="3815"></path><path d="M837.59 861.2s-143.63 68.33-366.17 68.33-265.5-68.33-265.5-68.33l7.9-83.16c69.24 33.67 136.71 60.72 259.65 60.72 126.37 0 218.21-27.85 312.92-60.3 16.28-5.57 31.07-11.35 44.49-17.27l6.71 100.01zM473.46 509.79c4.11 0 8.19-0.03 12.23-0.09L377.8 751.34c-54.46-9.6-93.39-27.15-131.62-46.29-8.89-4.45-16.93-9.17-24.08-14.15l21.75-228.92c66.37 25.13 123.52 47.81 229.61 47.81z" fill="#B8E5FA" p-id="3816"></path><path d="M246.18 705.05c38.23 19.14 77.16 36.69 131.62 46.29l-33.39 74.77c-50.48-11.08-90.24-28.45-130.59-48.08l8.28-87.13c7.15 4.98 15.19 9.7 24.08 14.15z" fill="#46AFE4" p-id="3817"></path><path d="M473.46 265.54c-98.34 0-149.54-21.94-206.68-44.73l-7.8 82.07c64.27 21.56 116.27 42.43 214.48 42.43 78.1 0 143.01-10.63 203.56-26.42 5.58-35.46 20.55-68.45 42.87-95.75-72.56 23.45-148.69 42.4-246.43 42.4z" fill="#FCCC67" p-id="3818"></path><path d="M837.59 861.2s-143.63 68.33-366.17 68.33c-72.79 0-126.37-7.31-165.52-17.15l38.51-86.26c36.14 7.93 77.77 12.63 129.05 12.63 126.37 0 218.21-27.85 312.92-60.3 16.28-5.57 31.07-11.35 44.49-17.27l6.72 100.02zM825.09 675.07c-17.01 9.43-38.45 18.96-64.57 27.91-85.35 29.25-170.97 56-287.06 56-37.05 0-68.31-2.81-95.66-7.64l70.24-157.31 37.65-84.33c71.67-1.03 132.23-11.08 188.88-25.7v29.73l137.22-36.66 13.3 198z" fill="#46AFE4" p-id="3819"></path><path d="M677.02 318.88a200.037 200.037 0 0 0-2.45 31.26V484c-56.65 14.62-117.21 24.67-188.88 25.7l75.51-169.12c41.46-4.58 79.42-12.2 115.82-21.7z" fill="#B8E5FA" p-id="3820"></path><path d="M719.91 223.13c-22.33 27.3-37.31 60.29-42.89 95.75-36.4 9.5-74.36 17.12-115.82 21.7l38.51-86.27c42.81-7.74 82-18.84 120.2-31.18z" fill="#F5922F" p-id="3821"></path><path d="M789.81 168.64c-0.45 0.21-0.9 0.42-1.34 0.64a200.137 200.137 0 0 0-68.56 53.85c-38.2 12.34-77.39 23.44-120.2 31.18l66.03-147.88 104.43 41.95a33.952 33.952 0 0 1 19.64 20.26z" fill="#B8E5FA" p-id="3822"></path><path d="M902.38 452.86l-113.9 30.43-113.9 30.43V350.14c0-77.22 44.33-147.55 113.9-180.86 0.44-0.22 0.89-0.43 1.34-0.64l112.56 284.22z" fill="#3B394D" p-id="3823"></path></svg>